<mxfile host="app.diagrams.net" modified="2023-08-05T14:32:51.614Z" agent="Mozilla/5.0 (Windows NT 10.0; Win64; x64) AppleWebKit/537.36 (KHTML, like Gecko) Chrome/115.0.0.0 Safari/537.36" version="21.6.6" etag="wFtPgr6WRw50KCSa06ec" type="device">
  <diagram id="3aWWUh9lbOgNzwRRlwzj" name="Page-1">
    <mxGraphModel dx="2391" dy="2240" grid="1" gridSize="10" guides="1" tooltips="1" connect="1" arrows="1" fold="1" page="1" pageScale="1" pageWidth="827" pageHeight="1169" math="0" shadow="0">
      <root>
        <mxCell id="0" />
        <mxCell id="1" parent="0" />
        <mxCell id="8wi2lTY08pK53c7EalKg-45" style="edgeStyle=orthogonalEdgeStyle;rounded=0;orthogonalLoop=1;jettySize=auto;html=1;exitX=0.5;exitY=1;exitDx=0;exitDy=0;entryX=0.5;entryY=0;entryDx=0;entryDy=0;" edge="1" parent="1" source="8wi2lTY08pK53c7EalKg-2" target="8wi2lTY08pK53c7EalKg-44">
          <mxGeometry relative="1" as="geometry" />
        </mxCell>
        <mxCell id="8wi2lTY08pK53c7EalKg-2" value="start" style="rounded=1;whiteSpace=wrap;html=1;" vertex="1" parent="1">
          <mxGeometry x="720" y="-140" width="120" height="60" as="geometry" />
        </mxCell>
        <mxCell id="8wi2lTY08pK53c7EalKg-3" style="edgeStyle=orthogonalEdgeStyle;rounded=0;orthogonalLoop=1;jettySize=auto;html=1;exitX=0.5;exitY=1;exitDx=0;exitDy=0;" edge="1" parent="1" source="8wi2lTY08pK53c7EalKg-4" target="8wi2lTY08pK53c7EalKg-7">
          <mxGeometry relative="1" as="geometry" />
        </mxCell>
        <mxCell id="8wi2lTY08pK53c7EalKg-52" value="" style="edgeStyle=orthogonalEdgeStyle;rounded=0;orthogonalLoop=1;jettySize=auto;html=1;" edge="1" parent="1" source="8wi2lTY08pK53c7EalKg-4" target="8wi2lTY08pK53c7EalKg-51">
          <mxGeometry relative="1" as="geometry" />
        </mxCell>
        <mxCell id="8wi2lTY08pK53c7EalKg-54" style="edgeStyle=orthogonalEdgeStyle;rounded=0;orthogonalLoop=1;jettySize=auto;html=1;entryX=0.5;entryY=0;entryDx=0;entryDy=0;" edge="1" parent="1" source="8wi2lTY08pK53c7EalKg-4" target="8wi2lTY08pK53c7EalKg-55">
          <mxGeometry relative="1" as="geometry">
            <mxPoint x="570" y="340" as="targetPoint" />
          </mxGeometry>
        </mxCell>
        <mxCell id="8wi2lTY08pK53c7EalKg-57" style="edgeStyle=orthogonalEdgeStyle;rounded=0;orthogonalLoop=1;jettySize=auto;html=1;exitX=0;exitY=0.25;exitDx=0;exitDy=0;entryX=1;entryY=0.5;entryDx=0;entryDy=0;" edge="1" parent="1" source="8wi2lTY08pK53c7EalKg-4" target="8wi2lTY08pK53c7EalKg-56">
          <mxGeometry relative="1" as="geometry" />
        </mxCell>
        <mxCell id="8wi2lTY08pK53c7EalKg-4" value="Route to /dashboard" style="shape=parallelogram;perimeter=parallelogramPerimeter;whiteSpace=wrap;html=1;fixedSize=1;" vertex="1" parent="1">
          <mxGeometry x="700" y="200" width="160" height="60" as="geometry" />
        </mxCell>
        <mxCell id="8wi2lTY08pK53c7EalKg-7" value="Populate User&amp;nbsp;user statistics (e.g., games played, win/loss ratio, and total points earned)" style="shape=process;whiteSpace=wrap;html=1;backgroundOutline=1;" vertex="1" parent="1">
          <mxGeometry x="750" y="342.5" width="140" height="130" as="geometry" />
        </mxCell>
        <mxCell id="8wi2lTY08pK53c7EalKg-47" style="edgeStyle=orthogonalEdgeStyle;rounded=0;orthogonalLoop=1;jettySize=auto;html=1;exitX=1;exitY=0.5;exitDx=0;exitDy=0;" edge="1" parent="1" source="8wi2lTY08pK53c7EalKg-44" target="8wi2lTY08pK53c7EalKg-46">
          <mxGeometry relative="1" as="geometry" />
        </mxCell>
        <mxCell id="8wi2lTY08pK53c7EalKg-48" value="No" style="edgeLabel;html=1;align=center;verticalAlign=middle;resizable=0;points=[];" vertex="1" connectable="0" parent="8wi2lTY08pK53c7EalKg-47">
          <mxGeometry x="-0.1172" relative="1" as="geometry">
            <mxPoint as="offset" />
          </mxGeometry>
        </mxCell>
        <mxCell id="8wi2lTY08pK53c7EalKg-49" style="edgeStyle=orthogonalEdgeStyle;rounded=0;orthogonalLoop=1;jettySize=auto;html=1;exitX=0.5;exitY=1;exitDx=0;exitDy=0;" edge="1" parent="1" source="8wi2lTY08pK53c7EalKg-44" target="8wi2lTY08pK53c7EalKg-4">
          <mxGeometry relative="1" as="geometry" />
        </mxCell>
        <mxCell id="8wi2lTY08pK53c7EalKg-50" value="yes" style="edgeLabel;html=1;align=center;verticalAlign=middle;resizable=0;points=[];" vertex="1" connectable="0" parent="8wi2lTY08pK53c7EalKg-49">
          <mxGeometry x="-0.26" y="3" relative="1" as="geometry">
            <mxPoint as="offset" />
          </mxGeometry>
        </mxCell>
        <mxCell id="8wi2lTY08pK53c7EalKg-44" value="Is User Authenticated?" style="rhombus;whiteSpace=wrap;html=1;" vertex="1" parent="1">
          <mxGeometry x="705" y="-20" width="150" height="120" as="geometry" />
        </mxCell>
        <mxCell id="8wi2lTY08pK53c7EalKg-46" value="No details are populated" style="rounded=1;whiteSpace=wrap;html=1;" vertex="1" parent="1">
          <mxGeometry x="1000" y="10" width="120" height="60" as="geometry" />
        </mxCell>
        <mxCell id="8wi2lTY08pK53c7EalKg-70" style="edgeStyle=orthogonalEdgeStyle;rounded=0;orthogonalLoop=1;jettySize=auto;html=1;exitX=1;exitY=0.5;exitDx=0;exitDy=0;entryX=0;entryY=0.5;entryDx=0;entryDy=0;" edge="1" parent="1" source="8wi2lTY08pK53c7EalKg-51" target="8wi2lTY08pK53c7EalKg-69">
          <mxGeometry relative="1" as="geometry" />
        </mxCell>
        <mxCell id="8wi2lTY08pK53c7EalKg-51" value="&lt;div style=&quot;&quot;&gt;&lt;span style=&quot;background-color: initial;&quot;&gt;View and manage team affiliations&lt;/span&gt;&lt;/div&gt;" style="shape=process;whiteSpace=wrap;html=1;backgroundOutline=1;align=center;" vertex="1" parent="1">
          <mxGeometry x="1010" y="365" width="150" height="85" as="geometry" />
        </mxCell>
        <mxCell id="8wi2lTY08pK53c7EalKg-55" value="&lt;div style=&quot;&quot;&gt;&lt;span style=&quot;background-color: initial;&quot;&gt;Populate to compare Achievements with other users&lt;/span&gt;&lt;/div&gt;" style="shape=process;whiteSpace=wrap;html=1;backgroundOutline=1;align=center;" vertex="1" parent="1">
          <mxGeometry x="510" y="352.5" width="150" height="85" as="geometry" />
        </mxCell>
        <mxCell id="8wi2lTY08pK53c7EalKg-59" value="" style="edgeStyle=orthogonalEdgeStyle;rounded=0;orthogonalLoop=1;jettySize=auto;html=1;" edge="1" parent="1" source="8wi2lTY08pK53c7EalKg-56" target="8wi2lTY08pK53c7EalKg-58">
          <mxGeometry relative="1" as="geometry" />
        </mxCell>
        <mxCell id="8wi2lTY08pK53c7EalKg-56" value="Click on Update Details" style="shape=trapezoid;perimeter=trapezoidPerimeter;whiteSpace=wrap;html=1;fixedSize=1;" vertex="1" parent="1">
          <mxGeometry x="190" y="200" width="120" height="60" as="geometry" />
        </mxCell>
        <mxCell id="8wi2lTY08pK53c7EalKg-60" style="edgeStyle=orthogonalEdgeStyle;rounded=0;orthogonalLoop=1;jettySize=auto;html=1;entryX=0.5;entryY=0;entryDx=0;entryDy=0;" edge="1" parent="1" source="8wi2lTY08pK53c7EalKg-58" target="8wi2lTY08pK53c7EalKg-61">
          <mxGeometry relative="1" as="geometry">
            <mxPoint x="250" y="520" as="targetPoint" />
          </mxGeometry>
        </mxCell>
        <mxCell id="8wi2lTY08pK53c7EalKg-58" value="Route to /editUser page" style="whiteSpace=wrap;html=1;" vertex="1" parent="1">
          <mxGeometry x="190" y="340" width="120" height="60" as="geometry" />
        </mxCell>
        <mxCell id="8wi2lTY08pK53c7EalKg-63" style="edgeStyle=orthogonalEdgeStyle;rounded=0;orthogonalLoop=1;jettySize=auto;html=1;exitX=1;exitY=0.5;exitDx=0;exitDy=0;entryX=0;entryY=0.5;entryDx=0;entryDy=0;" edge="1" parent="1" source="8wi2lTY08pK53c7EalKg-61" target="8wi2lTY08pK53c7EalKg-62">
          <mxGeometry relative="1" as="geometry" />
        </mxCell>
        <mxCell id="8wi2lTY08pK53c7EalKg-61" value="Click on Save" style="shape=trapezoid;perimeter=trapezoidPerimeter;whiteSpace=wrap;html=1;fixedSize=1;" vertex="1" parent="1">
          <mxGeometry x="190" y="524" width="120" height="60" as="geometry" />
        </mxCell>
        <mxCell id="8wi2lTY08pK53c7EalKg-64" style="edgeStyle=orthogonalEdgeStyle;rounded=0;orthogonalLoop=1;jettySize=auto;html=1;exitX=0.5;exitY=0;exitDx=0;exitDy=0;entryX=1;entryY=0.5;entryDx=0;entryDy=0;" edge="1" parent="1" source="8wi2lTY08pK53c7EalKg-62" target="8wi2lTY08pK53c7EalKg-58">
          <mxGeometry relative="1" as="geometry" />
        </mxCell>
        <mxCell id="8wi2lTY08pK53c7EalKg-65" value="No" style="edgeLabel;html=1;align=center;verticalAlign=middle;resizable=0;points=[];" vertex="1" connectable="0" parent="8wi2lTY08pK53c7EalKg-64">
          <mxGeometry x="-0.6896" y="1" relative="1" as="geometry">
            <mxPoint as="offset" />
          </mxGeometry>
        </mxCell>
        <mxCell id="8wi2lTY08pK53c7EalKg-67" style="edgeStyle=orthogonalEdgeStyle;rounded=0;orthogonalLoop=1;jettySize=auto;html=1;entryX=0;entryY=0.5;entryDx=0;entryDy=0;" edge="1" parent="1" source="8wi2lTY08pK53c7EalKg-62" target="8wi2lTY08pK53c7EalKg-66">
          <mxGeometry relative="1" as="geometry" />
        </mxCell>
        <mxCell id="8wi2lTY08pK53c7EalKg-68" value="Yes" style="edgeLabel;html=1;align=center;verticalAlign=middle;resizable=0;points=[];" vertex="1" connectable="0" parent="8wi2lTY08pK53c7EalKg-67">
          <mxGeometry x="-0.7294" y="-1" relative="1" as="geometry">
            <mxPoint as="offset" />
          </mxGeometry>
        </mxCell>
        <mxCell id="8wi2lTY08pK53c7EalKg-62" value="Are users details valid?" style="rhombus;whiteSpace=wrap;html=1;" vertex="1" parent="1">
          <mxGeometry x="430" y="504" width="110" height="106" as="geometry" />
        </mxCell>
        <mxCell id="8wi2lTY08pK53c7EalKg-66" value="Update Details" style="shape=step;perimeter=stepPerimeter;whiteSpace=wrap;html=1;fixedSize=1;" vertex="1" parent="1">
          <mxGeometry x="710" y="530" width="150" height="80" as="geometry" />
        </mxCell>
        <mxCell id="8wi2lTY08pK53c7EalKg-72" style="edgeStyle=orthogonalEdgeStyle;rounded=0;orthogonalLoop=1;jettySize=auto;html=1;exitX=0.5;exitY=1;exitDx=0;exitDy=0;entryX=0.5;entryY=0;entryDx=0;entryDy=0;" edge="1" parent="1" source="8wi2lTY08pK53c7EalKg-69" target="8wi2lTY08pK53c7EalKg-71">
          <mxGeometry relative="1" as="geometry" />
        </mxCell>
        <mxCell id="8wi2lTY08pK53c7EalKg-69" value="Click on leave" style="shape=trapezoid;perimeter=trapezoidPerimeter;whiteSpace=wrap;html=1;fixedSize=1;" vertex="1" parent="1">
          <mxGeometry x="1320" y="365" width="120" height="60" as="geometry" />
        </mxCell>
        <mxCell id="8wi2lTY08pK53c7EalKg-71" value="Remove User from the team" style="shape=process;whiteSpace=wrap;html=1;backgroundOutline=1;" vertex="1" parent="1">
          <mxGeometry x="1320" y="504" width="120" height="60" as="geometry" />
        </mxCell>
      </root>
    </mxGraphModel>
  </diagram>
</mxfile>
